# xmcd
#
# Track frame offsets: 
#        150
#        8023
#        26355
#        41816
#        47597
#        70899
#        80136
#        115361
#        139134
#        150687
#        161967
#        174482
#        202392
#        229530
#
# Disc length: 3212 seconds
#
# Revision: 2
# Processed by: cddbd v1.5.2PL0 Copyright (c) Steve Scherf et al.
# Submitted via: ExactAudioCopy v0.99pb3
#
DISCID=c00c8a0e
DTITLE=Ensemble Bracelli - Moondog
DYEAR=2004
DGENRE=Jazz
TTITLE0=Log in E Minor
TTITLE1=Logrundr in C Minor
TTITLE2=Love Song
TTITLE3=Logrundr in G Minor
TTITLE4=Friska
TTITLE5=Dark Eyes
TTITLE6=Gygg
TTITLE7=Speak of Heaven
TTITLE8=Snaketime Improvisation
TTITLE9=Log in C Minor
TTITLE10=As the Earth turns
TTITLE11=Rabbit Hop
TTITLE12=Tryst
TTITLE13=Danse Orientale
EXTD=YEAR: 2004
EXTT0=
EXTT1=
EXTT2=
EXTT3=
EXTT4=
EXTT5=
EXTT6=
EXTT7=
EXTT8=
EXTT9=
EXTT10=
EXTT11=
EXTT12=
EXTT13=
PLAYORDER=
